<svg xmlns="http://www.w3.org/2000/svg" width="600" height="330.834" viewBox="0 0 600 330.834"><defs><style>.a{fill:#2d3134;fill-rule:evenodd;}.b{opacity:0.6;}.c{fill:#2e3134;}.d{fill:#007fff;}.e{font-size:42px;fill:#e6f0fa;font-family:ImprintMT-Shadow, Imprint MT Shadow;}</style></defs><title>catalogIcon-ghost</title><path class="a" d="M387.5273,119.1983c-28.7905,0-43.6594,20.5914-43.6594,45.9931s14.5034,45.9953,43.6594,45.9953,43.6572-20.5935,43.6572-45.9963c0-25.405-14.87-45.9932-43.6593-45.9932Zm22.2386,46.0753c-.0213,16.3841-5.4792,29.6545-21.8483,29.6545-16.3671,0-21.827-13.2693-21.843-29.6545V165.19c.0171-16.3863,5.477-29.6513,21.8451-29.6513s21.827,13.265,21.8462,29.6513v.0834ZM258.42,84.7019a2.5333,2.5333,0,0,1,2.1211-2.4318s14.5154-2.078,15.8058-2.2538a3.0071,3.0071,0,0,1,3.4105,2.9241v47.14a44.8591,44.8591,0,0,1,11.3011-8.0084,32.336,32.336,0,0,1,14.4815-3.0477,30.9649,30.9649,0,0,1,12.7534,2.483,25.2355,25.2355,0,0,1,9.2974,6.9618,30.8878,30.8878,0,0,1,5.6506,10.71,46.3372,46.3372,0,0,1,1.9294,13.7148v54.7208a2.1313,2.1313,0,0,1-2.1313,2.1313H315.969a2.1251,2.1251,0,0,1-2.1109-2.1206V152.8924q0-8.181-3.7048-12.6684-3.7206-4.4821-11.129-4.4832a21.5255,21.5255,0,0,0-10.2277,2.5256,36.5514,36.5514,0,0,0-9.0391,6.8841v62.4648a2.1224,2.1224,0,0,1-2.1131,2.1312H260.5813a2.1366,2.1366,0,0,1-2.1367-2.1366V84.7ZM518.4615,187.0111V140.4787H504.0332a1.52,1.52,0,0,1-1.5443-2.0418L505.7,127.2583a2.956,2.956,0,0,1,2.47-2.2058l10.2706-1.4387,3.7543-25.0319a3.044,3.044,0,0,1,2.4336-2.4084s9.8371-1.396,11.7325-1.6837a2.9424,2.9424,0,0,1,3.4139,2.9945v25.9441h19.1794a2.1335,2.1335,0,0,1,2.1334,2.1334v12.775a2.1419,2.1419,0,0,1-2.1419,2.1419H539.7744v45.9079c0,6.4152,3.8774,8.8661,7.5933,8.8661,2.2689,0,5.3726-1.2148,7.6951-2.3018a3.0579,3.0579,0,0,1,4.2275,1.8436l2.6221,9.2178a2.7268,2.7268,0,0,1-1.3164,3.0478,39.02,39.02,0,0,1-18.2584,4.6568c-14.6944,0-23.8985-8.61-23.8985-24.68Zm-47.3281-51.3838c-7.549,0-13.4878,2.6385-13.4878,8.9866,0,7.9283,12.7983,10.2365,21.5579,13.47,5.85,2.16,21.5686,6.3725,21.5686,23.4612,0,20.7587-17.05,29.6323-35.23,29.6323s-27.0674-5.8237-27.0674-5.8237a2.8107,2.8107,0,0,1-1.2787-3.08s2.2378-8.0137,2.8133-10.0022a3.027,3.027,0,0,1,3.8789-1.91,64.7305,64.7305,0,0,0,22.6769,4.3606c9.6654,0,14.3436-2.987,14.3436-9.3531,0-8.4719-13.0648-11.0614-21.6966-13.8182-5.9569-1.8969-21.6964-6.3193-21.6964-25.113,0-18.5134,16.07-27.1994,33.248-27.1994a63.7772,63.7772,0,0,1,25.0427,4.9978,2.4663,2.4663,0,0,1,1.364,2.8751l-2.8325,9.9713a2.8446,2.8446,0,0,1-3.9066,2.0854c-4.1454-1.3608-11.9352-3.54-19.3414-3.54Zm-224.5622-16.283a26.5935,26.5935,0,0,0-15.5179,7.3849c-6.4578-5.1258-15.4411-7.5725-25.5115-7.5725-20.1939,0-35.9761,9.8679-35.9761,31.3619,0,12.34,5.2,20.844,13.4485,25.8525-6.1275,2.93-10.1982,9.1539-10.1982,15.2813,0,10.2408,7.9923,13.4378,7.9923,13.4378s-13.9706,6.8627-13.9706,20.5882c0,17.5724,15.9953,24.68,35.5285,24.68,28.165,0,47.5384-11.7647,47.5384-33.3653,0-13.2886-10.06-20.6309-31.98-21.5047-13.0008-.5115-21.43-.991-23.5187-1.6837a5.7388,5.7388,0,0,1-4.1134-5.6266c0-2.7174,2.2166-5.3069,5.7012-7.0865a54.013,54.013,0,0,0,9.58.8184c20.2153,0,35.9761-9.8284,35.9761-31.3565a33.6751,33.6751,0,0,0-2.6214-13.619c2.9731-1.6048,8.8874-2.3977,8.8874-2.3977a2.574,2.574,0,0,0,2.1036-2.4616v-9.7442a2.9305,2.9305,0,0,0-3.3035-2.9625Zm-52.0651,90.72s10.6074.4049,21.2062.8951c11.9054.5541,15.616,3.1543,15.616,9.3883,0,7.6194-10.3474,15.0256-24.8082,15.0256-13.7255,0-20.5818-4.838-20.5818-12.873,0-4.6142,2.4083-9.7826,8.5678-12.4573Zm11.722-43.2012c-9.5673,0-17.0321-5.147-17.0321-16.3576,0-11.2212,7.47-16.3576,17.0321-16.3576s17.0333,5.1257,17.0333,16.347-7.4617,16.3469-17.0333,16.3469Z"/><g class="b"><rect class="c" x="37.8566" y="191.6296" width="36.2319" height="18.1159" rx="4.2626"/><rect class="c" x="91.1387" y="191.6296" width="36.2319" height="18.1159" rx="4.2626"/><rect class="c" x="37.8566" y="155.3977" width="89.514" height="18.1159" rx="4.2626"/><rect class="c" x="37.8566" y="119.1658" width="53.2821" height="18.1159" rx="4.2626"/><rect class="c" x="109.2546" y="119.1658" width="18.1159" height="18.1159" rx="4.2626"/></g><path class="d" d="M596,4V326H4V4H596m4-4H0V330H600V0Z"/><rect class="d" x="550" y="280" width="50" height="50"/><text class="e" transform="translate(553.375 320.375)">W</text></svg>