<svg id="Layer_1" data-name="Layer 1" xmlns="http://www.w3.org/2000/svg" viewBox="0 0 225 225"><defs><style>.cls-1{fill:#fcb254;}.cls-2{fill:#0a0805;}</style></defs><title>zerotier</title><rect class="cls-1" width="225" height="225" rx="30" ry="30"/><path class="cls-2" d="M310.744,330.088h80c.667,0,1.334,0,2,0,4.343.037,5.337,1.383,4.385,5.762-.208.959-.608,1.5-1.585,1.523-1.332.029-2.666.029-4,.03h-73c-4.794,0-4.683-.5-4.675,4.522,0,3.833.085,7.669-.03,11.5-.061,2.058.6,2.982,2.758,3.163a52.323,52.323,0,0,1,10.306,1.857c36.091,10.5,54.4,49.746,38.406,83.775-9.277,19.743-25.328,31.277-47.16,34.278-4.217.58-4.256.5-4.273,4.867-.025,6.333-.105,12.668.043,19,.056,2.43-.745,3.258-3.136,3.085-2.045-.148-3.939.243-3.834-2.973.212-6.493.09-13,.051-19.5-.024-3.94-.063-4.008-3.627-4.4-38.565-4.267-64.72-44.734-48.591-83.287,8.527-20.38,24.327-32.422,46.182-36.225,6.02-1.047,6.045-.906,6.046-7.208,0-2.834.029-5.667-.008-8.5-.05-3.9-.071-3.929-4.213-3.945-6.333-.024-12.666-.006-19-.006q-28,0-56-.009c-4.094,0-4.094-.056-3.994-4.121.076-3.145.076-3.18,4.448-3.181Q269.5,330.076,310.744,330.088Zm3.126,86.242q0,24.469.007,48.94c.006,4.629.059,4.737,4.739,4.11,22.281-2.983,41.946-21.424,44.939-46.254A53.39,53.39,0,0,0,318.1,363.813c-4.111-.568-4.213-.6-4.22,3.576Q313.842,391.86,313.87,416.33Zm-6.859.171c0-14.829.084-29.658-.027-44.485-.081-10.76,1.694-9.668-9.433-7.1-30.049,6.939-47.794,39.311-37.692,68.479,7.012,20.244,21.466,32.362,42.717,35.974,4.322.734,4.419.476,4.425-3.886Q307.037,440.992,307.011,416.5Z" transform="translate(-198.115 -304.279)"/><path class="cls-1" d="M313.87,416.33q0-24.471.011-48.941c.007-4.173.109-4.144,4.22-3.576a53.39,53.39,0,0,1,45.454,59.313c-2.993,24.83-22.658,43.271-44.939,46.254-4.68.627-4.733.519-4.739-4.11Q313.852,440.8,313.87,416.33Z" transform="translate(-198.115 -304.279)"/><path class="cls-1" d="M307.011,416.5q0,24.49-.01,48.983c-.006,4.362-.1,4.62-4.425,3.886-21.251-3.612-35.705-15.73-42.717-35.974-10.1-29.168,7.643-61.54,37.692-68.479,11.127-2.569,9.352-3.661,9.433,7.1C307.1,386.843,307.011,401.672,307.011,416.5Z" transform="translate(-198.115 -304.279)"/></svg>