<svg xmlns="http://www.w3.org/2000/svg" width="600" height="330.834" viewBox="0 0 600 330.834"><defs><style>.a{fill:#fcb254;}.b{fill:#007fff;}.c{font-size:42px;fill:#e6f0fa;font-family:ImprintMT-Shadow, Imprint MT Shadow;}.d{fill:#0a0805;}</style></defs><title>Rancher Catalog Icon (ZeroTier)</title><rect class="a" x="2" y="2" width="596" height="326"/><path class="b" d="M596,4V326H4V4H596m4-4H0V330H600V0Z"/><rect class="b" x="550" y="280" width="50" height="50"/><text class="c" transform="translate(553.375 320.375)">W</text><path class="d" d="M426.27,39V49.0626H305.289V76.8347c26.3241,2.6014,48.399,13.4143,64.7654,34.717a85.9836,85.9836,0,0,1,18.1765,53.6116c.05,23.5114-8.1117,43.872-24.16,60.8872-15.8493,16.8038-35.737,25.6488-59.1438,27.6065v38.0065H294.7946V253.7906c-30.0475-2.9571-53.6033-16.2885-69.835-41.4336-10.5167-16.2917-14.6619-34.3258-13.3454-53.6147,2.7016-39.58,33.154-77.3071,82.5839-81.8895V49.6117H173.4971V39ZM305.0531,242.4846c40.1929.4185,74.5637-37.9917,72.797-80.7865-1.8974-45.9624-42.3079-74.5492-72.797-73.5Zm-10.9661.1408V87.6924c-40.746,2.3611-73.3463,38.0923-72.5093,78.8046C222.4118,207.0711,255.3961,241.9093,294.087,242.6254Z"/></svg>