<svg xmlns="http://www.w3.org/2000/svg" xmlns:xlink="http://www.w3.org/1999/xlink" width="600" height="330.834" viewBox="0 0 600 330.834"><defs><style>.a{fill:url(#a);}.b{font-size:72px;fill:#f46800;font-family:CenturyGothic, Century Gothic;}.c{fill:#007fff;}.d{font-size:42px;fill:#e6f0fa;font-family:ImprintMT-Shadow, Imprint MT Shadow;}</style><linearGradient id="a" x1="395.9676" y1="255.8059" x2="395.9676" y2="443.1099" gradientTransform="matrix(1, 0, 0, -1, -96, 519)" gradientUnits="userSpaceOnUse"><stop offset="0" stop-color="#fff100"/><stop offset="1" stop-color="#f05a28"/></linearGradient></defs><title>catalogIcon-grafana</title><path class="a" d="M393.6989,102.5427a77.6689,77.6689,0,0,0-2.0269-11.81A72.43,72.43,0,0,0,386.38,76.6052a78.6953,78.6953,0,0,0-9.8526-15.1443,72.8011,72.8011,0,0,0-5.3486-5.7639C374.05,44.2257,367.6878,34.28,367.6878,34.28c-10.9787-.6781-17.96,3.447-20.55,5.3118-.45-.1695-.8445-.3956-1.2949-.5651-1.858-.7346-3.7722-1.4692-5.799-2.0908q-2.9559-.9324-6.0806-1.6953c-2.0831-.5086-4.1662-.9041-6.3057-1.2432-.3941-.0565-.7319-.113-1.126-.1695-4.7856-15.37-18.523-21.8124-18.523-21.8124-15.37,9.776-18.2415,23.4511-18.2415,23.4511s-.0563.2826-.1689.7912c-.8445.226-1.689.5085-2.5336.7346a36.51,36.51,0,0,0-3.4906,1.2432c-1.1823.452-2.3084.9041-3.4907,1.4127-2.3083,1.0171-4.6166,2.1473-6.8687,3.3905-2.1957,1.2432-4.3352,2.5994-6.4183,4.0121l-.563-.226c-21.2818-8.1373-40.1426,1.6387-40.1426,1.6387-1.7453,22.7166,8.5015,37.0133,10.5283,39.6127-.5067,1.4127-.9571,2.8254-1.4075,4.2381a98.3126,98.3126,0,0,0-3.4907,15.879c-.1126.7911-.2252,1.5822-.2815,2.3733-19.7053,9.776-25.5043,29.7236-25.5043,29.7236,16.3835,18.93,35.5259,20.1171,35.5259,20.1171l.0563-.0565a86.8477,86.8477,0,0,0,8.3888,12.3754c1.3512,1.6388,2.7025,3.1645,4.1663,4.69a44.4548,44.4548,0,0,0,.8445,31.4189,51.1772,51.1772,0,0,0,32.7672-10.0021c1.8016.6216,3.66,1.1867,5.5175,1.6388a80.3141,80.3141,0,0,0,17.1154,2.5429c1.4076.0565,2.8714.113,4.2789.0565h2.0269l.9008-.0565v.0565c8.614,12.3189,23.7027,14.0707,23.7027,14.0707,10.7535-11.3583,11.3728-22.66,11.3728-25.09v-.7733h0v-.5081a62.61,62.61,0,0,0,6.4365-5.1379,69.2993,69.2993,0,0,0,11.2356-13.1553l.8469-1.3551c12.1955.6776,20.8339-7.5657,20.8339-7.5657-2.0325-12.7036-9.2595-18.9142-10.7839-20.1h0a.698.698,0,0,0-.1694-.1129c-.1129-.0565-.1129-.1129-.1129-.1129h0a1.2319,1.2319,0,0,0-.2823-.1694c.0564-.7905.1129-1.5245.1694-2.3149.1129-1.3551.1129-2.7666.1129-4.1216v-2.4037l-.0567-.8486-.0567-1.1314a6.2626,6.2626,0,0,0-.1133-1.0749c-.0567-.3395-.0567-.7355-.1134-1.0749l-.1134-1.0749-.17-1.0749c-.2267-1.4143-.4534-2.7721-.7934-4.1864a55.5563,55.5563,0,0,0-6.2345-15.388A52.1385,52.1385,0,0,0,335.318,83.5321a45.2673,45.2673,0,0,0-7.3112-.396h-1.8137l-.9068.0566c-.34,0-.68.0565-.9635.0565-1.2469.1132-2.4938.2829-3.684.5092A40.3872,40.3872,0,0,0,307.15,88.85a41.3835,41.3835,0,0,0-10.3718,8.8255,40.3625,40.3625,0,0,0-6.5744,11.0883,38.9569,38.9569,0,0,0-2.6071,11.88c-.0567.9617-.0567,1.98-.0567,2.9418v.0661l.0581.8142c.0582.4653.0582.9887.1164,1.454a31.8005,31.8005,0,0,0,1.105,5.8741,31.4972,31.4972,0,0,0,12.5043,17.3315,31.3739,31.3739,0,0,0,8.6076,4.0712,29.7724,29.7724,0,0,0,8.55,1.2214h1.5121a1.61,1.61,0,0,0,.5235-.0582c.2907,0,.5815-.0582.8723-.0582a.35.35,0,0,0,.2327-.0581l.2908-.0582c.1745,0,.3489-.0581.5234-.0581.349-.0582.64-.1164.9887-.1745a4.3542,4.3542,0,0,0,.9306-.2327,16.3056,16.3056,0,0,0,1.8029-.5234,24.6765,24.6765,0,0,0,3.3151-1.3958c1.0469-.5235,1.9774-1.1632,2.908-1.7448a6.5986,6.5986,0,0,0,.7561-.5816,2.21,2.21,0,0,0,.3489-3.0825,2.1433,2.1433,0,0,0-2.7335-.5234l-.6979.349a18.9057,18.9057,0,0,1-2.5008,1.0468,20.9034,20.9034,0,0,1-2.7335.698c-.4653.0581-.9306.1163-1.454.1744-.2327,0-.4653.0582-.7561.0582h-2.0857c-.2829.1987-.8486.5657-.8486.5657h.0261a.9709.9709,0,0,1-.3988-.0569c-.2848-.057-.5127-.057-.7976-.114a22.16,22.16,0,0,1-6.21-1.823,21.887,21.887,0,0,1-12.7045-16.4646,21.4674,21.4674,0,0,1-.2279-3.8171c0-.3418.057-.6836.057-1.0255v-.4557c0-.1709.057-.3419.057-.5128.0569-.6836.1709-1.3673.2848-2.0509a27.4153,27.4153,0,0,1,7.919-14.8694,31.7892,31.7892,0,0,1,3.4182-2.7916,23.56,23.56,0,0,1,3.874-2.2218,26.5642,26.5642,0,0,1,4.2159-1.5383,27.8483,27.8483,0,0,1,4.4437-.7976c.7406-.0569,1.4813-.1139,2.2789-.1139h1.152l.6216.0565a27.4268,27.4268,0,0,1,4.8033.7338,33.6087,33.6087,0,0,1,22.83,17.6117,31.5011,31.5011,0,0,1,3.1081,9.54c.113.8468.226,1.6935.2825,2.54l.0565.6209.0566.621v2.4272c0,.3952-.0566,1.0725-.0566,1.4677-.0565.9031-.1695,1.8628-.2825,2.7659s-.2826,1.8064-.4521,2.7095-.3956,1.8064-.6216,2.6531a47.2041,47.2041,0,0,1-1.6953,5.25,45.9532,45.9532,0,0,1-5.3119,9.6526A43.683,43.683,0,0,1,333.3363,172.7a41.2477,41.2477,0,0,1-10.6239,3.2175,36.1087,36.1087,0,0,1-5.5379.5645H314.349a26.6571,26.6571,0,0,1-2.9951-.1693,57.8361,57.8361,0,0,1-22.66-6.4916,57.515,57.515,0,0,1-28.594-35.5621,59.5386,59.5386,0,0,1-1.9214-11.3461l-.0565-.7338v-5.07c.1719-1.8669.3417-3.847.568-5.77s.5657-3.9035.9617-5.827.8486-3.847,1.4143-5.77a75.9358,75.9358,0,0,1,4.0167-10.9187,61.4609,61.4609,0,0,1,12.4462-17.99c1.2446-1.2446,2.5458-2.3761,3.9036-3.5076q2.0366-1.6123,4.243-3.0549a43.8073,43.8073,0,0,1,4.4693-2.6024c.7354-.396,1.5274-.792,2.32-1.1315l1.188-.5091,1.1881-.5092a46.0288,46.0288,0,0,1,4.9218-1.7538,10.553,10.553,0,0,0,1.2447-.396c.396-.1131.8486-.2263,1.2446-.3394.8486-.2263,1.6972-.4526,2.5458-.6223.396-.1132.8486-.17,1.3012-.2829s.8486-.17,1.3012-.2829c.4525-.0565.8486-.17,1.3011-.2262l.6224-.1132.6788-.1131c.4526-.0566.8486-.1132,1.3012-.17.5092-.0565.9618-.1131,1.4709-.17.396-.0566,1.0749-.1131,1.4709-.17.2829-.0566.6224-.0566.9052-.1132l.6223-.0565.2829.1407h.3394a3.9353,3.9353,0,0,1,1.471-.31l.7354.31h.7245c.3941,0,.8445-.0565,1.2386-.0565,1.6328-.0565,3.3218-.0565,4.9545,0a66.15,66.15,0,0,1,9.5712,1.0736,67.511,67.511,0,0,1,17.4533,5.82,69.039,69.039,0,0,1,14.2441,9.324c.2815.226.5067.4521.7882.6781.2252.226.5067.4521.7319.6781.5067.4521.9572.9041,1.4639,1.3562s.9571.9041,1.4075,1.3562.9008.9042,1.3512,1.4127a73.713,73.713,0,0,1,4.8419,5.6509,72.9612,72.9612,0,0,1,7.15,11.2452l.3378.6781.3378.6781a14.4769,14.4769,0,0,1,.6193,1.3563c.2253.452.3942.8476.6194,1.3.1689.452.3941.8476.563,1.3.6756,1.6952,1.3512,3.334,1.8579,4.86.8445,2.4864,1.4638,4.69,1.97,6.6115a1.5017,1.5017,0,0,0,1.6891,1.1867,1.5553,1.5553,0,0,0,1.4638-1.5822A56.2481,56.2481,0,0,0,393.6989,102.5427Z"/><text class="b" transform="translate(150.8306 288.3936)">Grafana</text><path class="c" d="M596,4V326H4V4H596m4-4H0V330H600V0Z"/><rect class="c" x="550" y="280" width="50" height="50"/><text class="d" transform="translate(553.375 320.375)">W</text></svg>