<svg xmlns="http://www.w3.org/2000/svg" width="600" height="330.834" viewBox="0 0 600 330.834"><defs><style>.a{fill:#007fff;}.b{font-size:42px;fill:#e6f0fa;font-family:ImprintMT-Shadow, Imprint MT Shadow;}.c{fill:#fff;}.d{fill:#fbfbfb;}</style></defs><title>catalogIcon-invoiceninja</title><rect x="2" y="2" width="596" height="326"/><path class="a" d="M596,4V326H4V4H596m4-4H0V330H600V0Z"/><rect class="a" x="550" y="280" width="50" height="50"/><text class="b" transform="translate(553.375 320.375)">W</text><path class="c" d="M438,44c-.8033,2.4172-3.0573,2.4673-4.9782,3.0019Q393.2271,58.077,353.4261,69.13c-13.5832,3.7868-27.1363,7.6819-40.7211,11.463a48.632,48.632,0,0,1-26.577-.0257Q225.7311,63.6951,165.35,46.7658c-1.6244-.4565-3.9528-.2116-4.35-2.7658Z"/><path class="c" d="M508,270h-6c-.2983-1.2043-.7567-2.6159-1.0808-3.9243-.7073.4432-1.267.744-1.7722,1.1184a15.61,15.61,0,0,1-12.6528,3.0556c-5.2587-.9777-8.5156-4.01-9.414-8.9108-1.1184-6.1015.9381-11.004,5.776-13.6456,4.6492-2.5386,9.5994-2.2012,14.5708-1.3895,1.1191.1827,2.2025.5845,3.699.9941a54.6564,54.6564,0,0,0-.0387-6.0841c-.4624-3.9572-2.5132-6.2217-6.465-6.1469-4.0563.0768-8.0958,1.0382-12.5787,1.6744-.2976-.6464-.8953-1.9443-1.656-3.5963,6.5923-3.2741,13.1114-4.2026,19.9071-1.9913a9.3994,9.3994,0,0,1,5.85,5.7511C506.3589,237.4338,506,236,508,245Zm-6.8107-17.3918c-4.8706-2.5047-9.2106-3.12-13.1425-1.9517-4.1282,1.2261-5.9921,3.978-5.5592,8.2075.4666,4.5578,2.93,6.9,7.4588,7.0917C497.66,266.2827,501.5988,261.7175,501.1893,252.6082Z"/><path class="c" d="M99,218h10.06v52H99Z"/><path class="c" d="M455,285c-.464-1.5833-.9279-3.1667-1.3375-4.5643,2.1309-1.6557,4.97-2.8395,5.9895-4.9165,1.2327-2.5119,1.2008-5.7768,1.2347-8.7213.1337-11.63.0782-23.2627.1016-34.8943a3.2816,3.2816,0,0,1,.3019-.7486h5.3876c0,5.4559.0063,10.74-.0015,16.0245q-.0162,10.9667-.0513,21.9334c-.0231,6.377-.7745,10.6528-7.625,13.8871C458.8022,283.0934,457,284,455,285Z"/><path class="c" d="M163.0835,190.6269c36.0515-16.0442,71.5273-31.8307,107.0013-47.6212,5.1553-2.2947,10.3379-4.5318,15.445-6.93,9.3344-4.3827,18.5877-4.1381,27.9264.0211q59.3585,26.4362,118.7488,52.8009c1.1591.5153,2.299,1.0738,3.6651,1.7141C431.7739,192.1631,168.1074,192.269,163.0835,190.6269Z"/><path class="c" d="M442.9073,60.6551V180.0934L329.94,130.92Z"/><path class="c" d="M159.1792,180.2174V60.5123l109.8075,70.392Z"/><path class="c" d="M333.9665,86.97a47.0852,47.0852,0,0,0-1.5473,6.2017,14.7894,14.7894,0,0,0,4.96,13.0081c1.1911,1.1147,2.5055,2.0977,3.9349,3.2833-7.2413,4.6262-14.2677,9.06-21.2247,13.6a5.3578,5.3578,0,0,1-5.0931.777c-10.4445-3.48-20.9151-3.2186-31.4337-.139a6.3463,6.3463,0,0,1-4.5684-.4963c-7.2209-4.3928-14.2947-9.0274-21.7815-13.8135,8.5072-5.9456,11.5766-13.3413,6.5951-23.255,7.85,2.1593,15.1055,4.3672,22.4678,6.1292,10.4172,2.4932,20.82,1.8451,31.0952-1.0416,4.318-1.2131,8.5936-2.578,12.9183-3.765a22.6561,22.6561,0,0,1,3.7946-.4Z"/><path class="c" d="M335.9246,253.81H313.5361c1.5042,7.3992,6.528,8.9447,14.4228,4.6029l6.716,5.5621c-7.7495,10.0544-24.269,8.37-29.6084-2.9163a24.31,24.31,0,0,1-.0069-21.2448,16.3916,16.3916,0,0,1,16.018-9.7765c6.5841.3786,11.6515,4.5259,14.007,11.6539A21.6315,21.6315,0,0,1,335.9246,253.81Zm-9.88-8.066c-1.0234-4.7925-3.0023-6.75-6.38-6.7212-3.4038.0291-5.1943,2.0827-5.7388,6.7212Z"/><path class="c" d="M237.661,250.5346c-.5458,5.8719-2.18,11.0066-6.2409,15.1345a16.7476,16.7476,0,0,1-26.2316-3.1471c-4.32-7.2161-4.4528-14.9272-1.037-22.4889,2.9176-6.4589,8.18-10.0015,15.3827-9.98,7.1842.0211,12.47,3.5255,15.3388,10.018C236.3145,243.3325,236.7633,247.0327,237.661,250.5346Zm-10.6117-.1291a47.1554,47.1554,0,0,0-1.4983-6.1121,6.3825,6.3825,0,0,0-12.0954.0664,16.197,16.197,0,0,0,.104,12.1456,6.0834,6.0834,0,0,0,5.7194,4.1121,5.8138,5.8138,0,0,0,5.8874-3.8057C226.0082,254.6856,226.4748,252.411,227.0493,250.4055Z"/><path class="c" d="M350.1778,218.0538h5.369c8.1962,13.1756,16.4783,26.4891,24.76,39.8025l.9225-.1609V218.128H386.86v51.4953h-5.2933c-8.3489-13.0533-16.7907-26.252-25.2326-39.4506l-.8775.2125C355.4568,243.421,355,256.79,355,270h-5C350,252.7852,350.1778,235.6368,350.1778,218.0538Z"/><path class="c" d="M132.003,269.6031H121.9894V231.22c3.4056-.2634,6.9364-1.1282,11.0282.81,1.9394-.5155,4.707-1.7294,7.5416-1.9141,8.1981-.5344,13.91,4.4257,14.4051,13.0744.4928,8.604.108,17.2582.108,26.2721h-9.9661c0-5.6938.0083-11.3041-.0044-16.9145-.0045-1.9952.0385-3.9977-.1118-5.9839-.3546-4.6889-2.2564-6.6723-6.2718-6.72-4.2581-.0511-6.4134,2.0175-6.6374,6.9153-.2125,4.6471-.0687,9.3107-.0769,13.967C131.999,263.5446,132.003,266.3632,132.003,269.6031Z"/><path class="c" d="M291.6635,255.846l6.2586,5.807a17.2385,17.2385,0,0,1-15.0959,8.8679c-6.868.221-12.3721-2.6495-15.8206-8.619A22.11,22.11,0,0,1,266.78,239.07c6.865-12.51,25.3073-11.5881,31.1327.0145l-6.9557,5.4806c-6.1351-5.2768-10.5107-6.0576-14.06-2.1554-3.5158,3.8656-3.3394,12.6408.3252,16.1758C280.7965,262.033,285.67,261.1933,291.6635,255.846Z"/><path class="c" d="M184.5028,269.6916H173.8744c-4.5861-12.7094-9.187-25.4595-13.9111-38.5513h11.3043q3.8226,11.9187,7.6589,23.88l.8149-.0453q3.8187-11.941,7.63-23.8588h10.9931C193.7056,244.0814,189.1744,256.6911,184.5028,269.6916Z"/><path class="c" d="M424.135,269.7067h-5.3174V231.0418l4.7758-.222c.3313,1.0612.6395,2.0487.9549,3.059a50.1528,50.1528,0,0,1,6.3226-3.173c8.3672-2.8179,16.4215,1.8325,17.0986,10.6773C448.6764,250.6154,448,260.3353,448,270h-5c0-6.5542.013-12.8887-.0777-19.1617a49.986,49.986,0,0,0-.6515-8.92c-.9226-4.674-3.5107-6.7441-7.81-6.928-4.7034-.2011-8.16,2.0338-9.3788,6.5195a30.4107,30.4107,0,0,0-.9066,7.387C424.058,255.6976,424.135,262.5016,424.135,269.7067Z"/><path class="c" d="M187.712,63.4134c18.1027,4.7448,35.8509,10.7242,55,16.2212-6.454,2.6389-9.9629,6.8022-11.7061,12.8518L187.3251,64.5721Z"/><path class="c" d="M410.987,64.9237l-42.9614,27.53c-2.0059-5.7187-5.0444-10.2995-10.8312-12.6733,17.8831-5.71,35.4616-11.306,53.2234-16.2628Z"/><path class="c" d="M255.4221,269.774h-9.7685V231.1977h9.7685Z"/><path class="c" d="M405.8171,269.7552H400.609V231.0905l5.2081-.2637Z"/><path class="c" d="M256.2609,222.0579a5.7542,5.7542,0,1,1-11.4958-.4127,5.7525,5.7525,0,1,1,11.4958.4127Z"/><path class="c" d="M467.7876,220.124a4.1723,4.1723,0,0,1-4.2934,3.8444,4.0091,4.0091,0,0,1-3.6333-4.4067,3.7212,3.7212,0,0,1,3.9493-3.5571A4.0271,4.0271,0,0,1,467.7876,220.124Z"/><path class="c" d="M407.097,220.0891a3.8613,3.8613,0,0,1-4.16,3.8507,3.9635,3.9635,0,0,1-3.7707-3.85,4.0426,4.0426,0,0,1,4.01-4.0992A3.85,3.85,0,0,1,407.097,220.0891Z"/><path class="d" d="M334.0835,87.0593l.14-.7283.4561.1736-.7133.4651Z"/></svg>