<svg xmlns="http://www.w3.org/2000/svg" width="600" height="330.834" viewBox="0 0 600 330.834"><defs><style>.a{fill:#fff;}.b{fill:#c1272d;}.c{fill:#ccc;}.d{fill:#f4f4f4;}.e{fill:#007fff;}.f{font-size:42px;fill:#e6f0fa;font-family:ImprintMT-Shadow, Imprint MT Shadow;}</style></defs><title>catalogIcon-rocketchat</title><rect class="a" width="600" height="330"/><rect width="600" height="330"/><path class="b" d="M401,125.25A51.9452,51.9452,0,0,0,391.9393,96.21a74.8638,74.8638,0,0,0-22.48-21.4488C351.0829,63.0234,326.9305,56.557,301.4555,56.557a145.127,145.127,0,0,0-25.0334,2.1447A82.8243,82.8243,0,0,0,259.214,46.3662C225.81,30.1768,198.11,45.9855,198.11,45.9855s25.7544,21.1572,21.5663,39.7019c-11.5213,11.43-17.7671,25.2137-17.7671,39.5622l.0021-.0489-.0021.1364c0,14.2034,6.1806,27.8475,17.5875,39.16,4.1457,18.3593-21.3483,39.3026-21.3483,39.3026s27.4205,15.6468,60.4864-.3769a82.1191,82.1191,0,0,0,17.0341-12.2108,143.881,143.881,0,0,0,24.78,2.121c25.2194,0,49.1257-6.397,67.3165-18.0164a74.0657,74.0657,0,0,0,22.2524-21.234,51.4192,51.4192,0,0,0,8.9691-28.7436l2.011-.284Z"/><path class="a" d="M300.5083,71.01c46.8422,0,84.818,24.2567,84.818,54.1784,0,29.92-37.9758,54.1783-84.818,54.1783a128.2775,128.2775,0,0,1-29.6481-3.4046c-9.3793,11.2817-30.0122,26.9695-50.0558,21.9,6.52-7.0023,16.1785-18.835,14.1112-38.3256-12.0137-9.3471-19.2252-21.31-19.2252-34.3478-.002-29.9237,37.9737-54.1784,84.8179-54.1784"/><circle class="b" cx="300.5083" cy="126.9314" r="11.2676"/><circle class="b" cx="339.6826" cy="126.9314" r="11.2676"/><circle class="b" cx="261.3321" cy="126.9314" r="11.2656"/><path class="c" d="M300.5083,172.2372A147.0446,147.0446,0,0,1,270.86,169.285c-8.2813,8.6353-25.3386,20.2428-43.0153,19.8164a66.8923,66.8923,0,0,1-7.0405,8.7579c20.0436,5.07,40.6765-10.616,50.0558-21.9a128.1814,128.1814,0,0,0,29.6481,3.4046c46.4662,0,84.2006-23.8726,84.8018-53.4624C384.7089,151.55,346.9745,172.2372,300.5083,172.2372Z"/><path class="d" d="M121.64,262.6477c0,5.6907-2.1067,9.428-6.1518,11.2106l5.8153,22.2529c.2524,1.0211-.2523,1.5283-1.18,1.5283h-9.5344a1.3259,1.3259,0,0,1-1.4364-1.1834L103.49,274.9906H97.6583v21.2833a1.3656,1.3656,0,0,1-1.3656,1.3656H88.3669A1.3669,1.3669,0,0,1,87,296.2726V231.06a1.3669,1.3669,0,0,1,1.3669-1.3669h20.9689A12.3036,12.3036,0,0,1,121.64,241.9965v20.6512Zm-11.9906-3.0669V243.7671a3.416,3.416,0,0,0-3.416-3.416H97.6583V263l8.5733-.0013A3.4179,3.4179,0,0,0,109.6489,259.5808Zm30.9557-29.888h10.0322A12.3036,12.3036,0,0,1,162.94,241.9965v43.3406A12.3024,12.3024,0,0,1,150.6381,297.64H140.6046a12.3037,12.3037,0,0,1-12.3037-12.3037V241.9965A12.3037,12.3037,0,0,1,140.6046,229.6928Zm8.2019,57.2884c2.2588,0,3.4756-1.1189,3.4756-3.4411V243.7684a3.4173,3.4173,0,0,0-3.4173-3.4173h-5.1559a3.4174,3.4174,0,0,0-3.4174,3.4173v39.773c0,2.3209,1.2168,3.44,3.4757,3.44Zm56.7672-36.0064a1.3669,1.3669,0,0,1-1.367,1.3669h-9.3316c-.8891,0-1.292-.528-1.292-1.4108v-7.0541c0-2.2923-1.13-3.5257-3.2287-3.5257h-4.2c-2.18,0-3.23,1.2334-3.23,3.5257V282.125c0,2.38,1.13,3.5239,3.23,3.5239h4.2c2.0991,0,3.2287-1.1453,3.2287-3.5239v-7.056c0-.8827.4029-1.4107,1.292-1.4107h9.333a1.3656,1.3656,0,0,1,1.3656,1.3656v9.7313c0,8.4095-4.4061,12.8843-12.4383,12.8843h-9.8123a12.3889,12.3889,0,0,1-12.3889-12.3889V242.0817a12.3889,12.3889,0,0,1,12.3889-12.3889h9.8123c8.0335,0,12.4383,4.2262,12.4383,12.17ZM241.9574,297.64a1.95,1.95,0,0,1-2.0291-1.2727l-11.1067-25.2261-3.2636,6.0311V295.93a1.7093,1.7093,0,0,1-1.7093,1.7093h-8.572a1.7093,1.7093,0,0,1-1.7093-1.7093V231.4021a1.7093,1.7093,0,0,1,1.7093-1.7093h8.572a1.7093,1.7093,0,0,1,1.7093,1.7093v26.3191l13.577-26.7544a2.1018,2.1018,0,0,1,2.0292-1.274H250.42c1.3225,0,1.8518.85,1.2331,2.0382l-14.9861,29.6414,15.9553,34.3137c.6173,1.1045.088,1.9534-1.3211,1.9534Zm50.215-58.8206c0,.901-.3479,1.5322-1.3889,1.5322h-21.26v17.32h15.9811c.839,0,1.3387.52,1.3387,1.4719v7.7278a1.2753,1.2753,0,0,1-1.3387,1.4587H269.5235v17.32h21.26c1.0437,0,1.3889.4042,1.3889,1.292v8.0768c0,.8072-.3479,1.29-1.3889,1.29h-31.947a1.209,1.209,0,0,1-1.3036-1.29v-65.215a1.2834,1.2834,0,0,1,1.3036-1.4422h31.947c1.0437,0,1.3889.5412,1.3889,1.4422Zm39.9154-9.1261c.952,0,1.3856.4847,1.3856,1.2917v8.0749c0,.807-.4336,1.2917-1.3856,1.2917H322.815v55.9241a1.3643,1.3643,0,0,1-1.3642,1.3643h-9.2157a1.2392,1.2392,0,0,1-1.4106-1.3694v-55.919H300.2008a1.3669,1.3669,0,0,1-1.3669-1.3669V231.06a1.3669,1.3669,0,0,1,1.3669-1.3669Zm1.7613,55.9561h7.2423a1.708,1.708,0,0,1,1.708,1.708v7.241a1.7093,1.7093,0,0,1-1.7094,1.7093h-7.24a1.7093,1.7093,0,0,1-1.7093-1.7093v-7.241A1.708,1.708,0,0,1,333.8491,285.6489Zm52.9158-34.6741a1.3669,1.3669,0,0,1-1.3669,1.3669h-9.333c-.8877,0-1.2907-.528-1.2907-1.4108v-7.0541c0-2.2923-1.13-3.5257-3.2287-3.5257h-4.2c-2.181,0-3.23,1.2334-3.23,3.5257V282.125c0,2.38,1.13,3.5239,3.23,3.5239h4.2c2.0991,0,3.2287-1.1453,3.2287-3.5239v-7.056c0-.8827.403-1.4107,1.2907-1.4107h9.333a1.3669,1.3669,0,0,1,1.3669,1.3669v9.73c0,8.4095-4.4059,12.8843-12.4391,12.8843h-9.8114a12.3889,12.3889,0,0,1-12.389-12.389v-43.254a12.3036,12.3036,0,0,1,12.3037-12.3037h9.8967c8.0346,0,12.4391,4.2262,12.4391,12.17Zm30.6427-19.9419a1.2285,1.2285,0,0,1,1.3308-1.34h9.2175c1.02,0,1.4422.51,1.4422,1.3588v65.2317c0,.849-.4238,1.3562-1.4422,1.3562h-9.1828a1.3656,1.3656,0,0,1-1.3656-1.3656V269.6614H406.7492v26.6112a1.3669,1.3669,0,0,1-1.3669,1.3669h-9.1236c-1.06,0-1.5-.51-1.5-1.3575v-65.23c0-.8489.44-1.3588,1.5-1.3588h9.1236a1.3669,1.3669,0,0,1,1.3669,1.3669v26.6111h10.6583V231.0329ZM467.769,297.64a1.28,1.28,0,0,1-1.3323-1.1661l-2.3309-12.1568h-14.824l-2.2464,12.1568a1.28,1.28,0,0,1-1.3323,1.1661h-9.3059c-.9336,0-1.3588-.51-1.1058-1.4435L449.39,230.882a1.3221,1.3221,0,0,1,1.4436-1.1892H462.64a1.3213,1.3213,0,0,1,1.4435,1.1892l14.0989,65.314c.1709.9336-.1695,1.4435-1.1879,1.4435Zm-11.0776-53.8-5.4677,29.8193h10.9368Zm53.9229-14.1462c.9521,0,1.3857.4847,1.3857,1.2917v8.0749c0,.807-.4336,1.2917-1.3857,1.2917H500.0094v55.9241a1.3643,1.3643,0,0,1-1.3643,1.3643h-9.217a1.2394,1.2394,0,0,1-1.4093-1.3694v-55.919h-9.2914a1.3669,1.3669,0,0,1-1.3669-1.3669V231.06a1.3669,1.3669,0,0,1,1.3669-1.3669Z"/><path class="e" d="M596,4V326H4V4H596m4-4H0V330H600V0Z"/><rect class="e" x="550" y="280" width="50" height="50"/><text class="f" transform="translate(553.375 320.375)">W</text></svg>