<svg xmlns="http://www.w3.org/2000/svg" width="600" height="330.834" viewBox="0 0 600 330.834"><defs><style>.a{fill:#8fc46a;}.b,.c{fill:#fff;}.c{font-size:99.8449px;font-family:MicrosoftSansSerif, Microsoft Sans Serif;letter-spacing:0.2em;}.d{fill:#007fff;}.e{font-size:42px;fill:#e6f0fa;font-family:ImprintMT-Shadow, Imprint MT Shadow;}</style></defs><title>catalogIcon-turtl</title><rect class="a" width="600" height="330"/><path class="b" d="M150,260.9062H115.9688v-6.1875l-3.0938-3.0937-15.4687-3.0938H78.8438v-6.1875L75.75,239.25l-3.0937-3.0938H66.4688v-6.1875L63.375,226.875l-6.1875-3.0938L51,214.5V198.4588c89.33-16.7567,98.161-16.7567,198,0v15.4687l-6.1875,9.2813-6.1875,3.0937-3.0938,3.0938v6.76h-6.1875L224.25,239.25l-3.0938,3.0937v6.1875H202.5938L187.125,251.625l-3.0937,3.0937v6.1875Z"/><path class="a" d="M148.5022,222.2344H105.1406v-12.375h-24.75v-12.375H56.37l-3.05-20.8828,3.05-20.8828H68.0156v-24.75h12.375v-24.75h12.375V93.8438h12.375V81.4688h23.2032V69.3317L150,66.238l21.6563,3.0937V81.4688h24.75v12.375h10.8281v12.375h12.375v24.75h12.375v24.75h12.375l3.1428,20.8828-3.1428,20.8828h-24.75v12.375h-24.75v12.375Z"/><path d="M150,264H112.875V251.625H75.75V239.25H63.375V226.875H51V214.5H63.375v12.375H75.75V239.25h37.125v12.375h74.25V239.25H224.25V226.875h12.375V214.5H249v12.375H236.625V239.25H224.25v12.375H187.125V264Zm0-37.125H100.5V214.5H75.75V202.125H51v-49.5H63.375v-24.75H75.75v-24.75H88.125V90.75H100.5V78.375h24.75V66h49.5V78.375H199.5V90.75h12.375v12.375H224.25v24.75h12.375v24.75H249v49.5H224.25V214.5H199.5v12.375Zm0-12.375h37.125V189.75H199.5v12.375h12.375V189.75h24.75V165H199.5V152.625h24.75V140.25H211.875V115.5H199.5V103.125H174.75V90.75H162.375V78.375h-24.75V90.75H125.25v12.375H100.5V115.5H88.125v24.75H75.75v12.375H100.5V165H63.375v24.75h24.75v12.375H100.5V189.75h12.375V214.5Zm-30.9375-24.75H112.875V177.375H125.25V165H112.875V152.625H100.5v-24.75h12.375V115.5H125.25V103.125h49.5V115.5h12.375v12.375H199.5v24.75H187.125V165H174.75v12.375h12.375V189.75H174.75V177.375h-49.5V189.75ZM150,165h24.75V152.625h12.375v-24.75H174.75V115.5h-49.5v12.375H112.875v24.75H125.25V165Z"/><text class="c" transform="translate(276.7603 200.3564) scale(0.6916 1)">TURTL</text><path class="d" d="M596,4V326H4V4H596m4-4H0V330H600V0Z"/><rect class="d" x="550" y="280" width="50" height="50"/><text class="e" transform="translate(553.375 320.375)">W</text></svg>